<svg width="216" height="33" viewBox="0 0 216 33" fill="none" xmlns="http://www.w3.org/2000/svg">
<g clip-path="url(#clip0_8_1455)">
<g clip-path="url(#clip1_8_1455)">
<g clip-path="url(#clip2_8_1455)">
<g clip-path="url(#clip3_8_1455)">
<g clip-path="url(#clip4_8_1455)">
<g clip-path="url(#clip5_8_1455)">
<g clip-path="url(#clip6_8_1455)">
<path d="M13.9064 12.4745L26.0606 26.3297H17.832L7.11204 14.3843V26.3297H0.166748V-0.0701141H7.11204V11.2762L17.53 -0.0701141H25.6454L13.9064 12.4745ZM39.989 7.38176L40.3664 12.8864L36.705 13.2609C35.2455 13.4107 34.2264 13.7976 33.6476 14.4217C33.0688 15.0458 32.7794 15.9321 32.7794 17.0804V26.3297H26.0606V7.90601H32.4397V11.089C32.8675 9.96557 33.5721 9.10929 34.5535 8.52013C35.5349 7.93597 36.7302 7.60644 38.1394 7.53154L39.989 7.38176ZM51.3883 18.3162L55.6914 7.94346H62.2592L50.9353 33.0701H44.141L47.8779 25.0565L40.2909 7.94346H47.3117L51.3883 18.3162ZM75.727 7.45665C77.3124 7.45665 78.7291 7.86107 79.9772 8.66992C81.2203 9.48376 82.1892 10.6271 82.8837 12.1C83.5732 13.5729 83.9179 15.258 83.9179 17.1553C83.9179 19.0526 83.5732 20.7177 82.8837 22.1507C82.1892 23.5886 81.2254 24.6946 79.9923 25.4685C78.7593 26.2424 77.3375 26.6293 75.727 26.6293C74.5443 26.6293 73.4572 26.3921 72.4658 25.9178C71.4693 25.4435 70.6942 24.8069 70.1406 24.008V33.0701H63.4218V7.90601H70.0274V10.2651C70.5558 9.39139 71.3308 8.70487 72.3525 8.20558C73.3691 7.70629 74.494 7.45665 75.727 7.45665ZM73.6887 21.6489C74.8463 21.6489 75.7346 21.262 76.3536 20.4881C76.9676 19.7142 77.2746 18.6033 77.2746 17.1553C77.2746 15.6325 76.9601 14.4642 76.331 13.6503C75.7019 12.8415 74.8085 12.437 73.651 12.437C72.4934 12.437 71.6001 12.8365 70.971 13.6353C70.3419 14.4342 70.0274 15.5826 70.0274 17.0804C70.0274 18.5533 70.3419 19.6817 70.971 20.4656C71.6001 21.2545 72.506 21.6489 73.6887 21.6489ZM97.884 21.8361C98.4376 21.8361 99.0541 21.7987 99.7336 21.7238L99.3939 26.4795C98.5886 26.5794 97.8085 26.6293 97.0536 26.6293C94.0339 26.6293 91.8396 25.9977 90.4707 24.7345C89.0967 23.4763 88.4097 21.5241 88.4097 18.8779V12.8115H84.9371V7.90601H88.4097V2.55115H95.1286V7.90601H99.5826V12.8115H95.1286V18.9153C95.1286 20.8625 96.047 21.8361 97.884 21.8361ZM111.435 26.6293C109.397 26.6293 107.602 26.2349 106.052 25.446C104.507 24.6621 103.312 23.5462 102.466 22.0983C101.626 20.6503 101.206 18.9528 101.206 17.0055C101.206 15.0583 101.626 13.3657 102.466 11.9278C103.312 10.4948 104.502 9.39139 106.037 8.6175C107.572 7.8436 109.371 7.45665 111.435 7.45665C113.498 7.45665 115.298 7.8436 116.833 8.6175C118.368 9.39139 119.555 10.4948 120.396 11.9278C121.241 13.3657 121.664 15.0583 121.664 17.0055C121.664 18.9528 121.241 20.6503 120.396 22.0983C119.555 23.5462 118.368 24.6621 116.833 25.446C115.298 26.2349 113.498 26.6293 111.435 26.6293ZM111.435 21.6489C113.825 21.6489 115.021 20.1011 115.021 17.0055C115.021 13.9099 113.825 12.3622 111.435 12.3622C109.044 12.3622 107.849 13.9099 107.849 17.0055C107.849 20.1011 109.044 21.6489 111.435 21.6489ZM137.216 7.45665C139.43 7.45665 141.078 8.11072 142.16 9.41885C143.242 10.732 143.783 12.7241 143.783 15.3953V26.3297H137.065V15.6949C137.065 14.5965 136.868 13.7976 136.476 13.2983C136.088 12.799 135.504 12.5494 134.724 12.5494C133.718 12.5494 132.917 12.8664 132.324 13.5005C131.735 14.1396 131.44 14.9959 131.44 16.0694V26.3297H124.722V7.90601H131.252V10.3775C131.906 9.42884 132.749 8.70487 133.781 8.20558C134.812 7.70629 135.957 7.45665 137.216 7.45665ZM164.687 16.8932V18.3911H153.212C153.414 19.5893 153.854 20.4506 154.533 20.9749C155.213 21.4991 156.182 21.7612 157.44 21.7612C158.346 21.7612 159.264 21.6115 160.195 21.3119C161.126 21.0123 161.957 20.6004 162.687 20.0762L164.385 24.4574C163.454 25.1314 162.334 25.6607 161.026 26.0451C159.717 26.4346 158.409 26.6293 157.1 26.6293C154.961 26.6293 153.112 26.2424 151.552 25.4685C149.991 24.6946 148.791 23.5836 147.951 22.1357C147.105 20.6878 146.682 18.9902 146.682 17.043C146.682 15.1956 147.08 13.5405 147.875 12.0776C148.665 10.6196 149.772 9.48376 151.197 8.66992C152.616 7.86107 154.219 7.45665 156.006 7.45665C158.673 7.45665 160.787 8.29795 162.347 9.98055C163.907 11.6681 164.687 13.9724 164.687 16.8932ZM156.194 11.9502C154.408 11.9502 153.389 13.0487 153.137 15.2455H159.063C158.912 13.0487 157.956 11.9502 156.194 11.9502ZM188.165 18.5408L192.204 7.90601H198.696L190.921 26.3297H185.41L181.711 17.3051L178.238 26.3297H172.689L164.914 7.90601H171.708L175.822 18.3536L179.823 7.90601H184.126L188.165 18.5408ZM207.567 26.6293C205.78 26.6293 204.132 26.4421 202.622 26.0676C201.112 25.6931 199.841 25.1439 198.81 24.42L200.508 19.8889C201.515 20.538 202.66 21.0548 203.943 21.4392C205.227 21.8287 206.46 22.0234 207.642 22.0234C208.372 22.0234 208.938 21.916 209.341 21.7013C209.743 21.4916 209.945 21.1995 209.945 20.8251C209.945 20.5005 209.799 20.2509 209.507 20.0762C209.22 19.9014 208.636 19.7142 207.756 19.5145L204.774 18.8404C202.886 18.416 201.527 17.7919 200.697 16.9681C199.867 16.1443 199.451 14.9709 199.451 13.4481C199.451 12.2748 199.804 11.2313 200.508 10.3176C201.213 9.40887 202.199 8.70487 203.468 8.20558C204.741 7.70629 206.183 7.45665 207.793 7.45665C209.127 7.45665 210.453 7.64888 211.772 8.03333C213.095 8.42277 214.298 8.967 215.38 9.666L213.644 14.0098C212.637 13.3857 211.623 12.9039 210.602 12.5644C209.585 12.2298 208.624 12.0626 207.718 12.0626C206.988 12.0626 206.422 12.1749 206.019 12.3996C205.617 12.6243 205.415 12.9488 205.415 13.3732C205.415 13.6229 205.541 13.8276 205.793 13.9873C206.044 14.1521 206.485 14.3094 207.114 14.4592L210.247 15.1706C212.21 15.595 213.631 16.2491 214.512 17.1329C215.393 18.0216 215.833 19.2274 215.833 20.7502C215.833 22.5726 215.096 24.008 213.621 25.0565C212.152 26.1051 210.134 26.6293 207.567 26.6293Z" fill="white"/>
</g>
</g>
</g>
</g>
</g>
</g>
</g>
<defs>
<clipPath id="clip0_8_1455">
<rect width="216" height="33" fill="white"/>
</clipPath>
<clipPath id="clip1_8_1455">
<rect width="215.682" height="33.1402" fill="white" transform="translate(0.15918 -0.0701141)"/>
</clipPath>
<clipPath id="clip2_8_1455">
<rect width="215.682" height="33.1402" fill="white" transform="translate(0.15918 -0.0701141)"/>
</clipPath>
<clipPath id="clip3_8_1455">
<rect width="215.682" height="33.1402" fill="white" transform="translate(0.15918 -0.0701141)"/>
</clipPath>
<clipPath id="clip4_8_1455">
<rect width="215.682" height="33.1402" fill="white" transform="translate(0.15918 -0.0701141)"/>
</clipPath>
<clipPath id="clip5_8_1455">
<rect width="215.682" height="33.1402" fill="white" transform="translate(0.15918 -0.0701141)"/>
</clipPath>
<clipPath id="clip6_8_1455">
<rect width="215.682" height="33.1402" fill="white" transform="translate(0.15918 -0.0701141)"/>
</clipPath>
</defs>
</svg>
