<svg width="1080" height="1080" viewBox="0 0 1080 1080" fill="none" xmlns="http://www.w3.org/2000/svg">
<rect width="1080" height="1080" fill="#4D0DA7"/>
<rect width="1080" height="1080" fill="#70D540"/>
<rect width="1080" height="1080" fill="#FF6E05"/>
<rect x="400" y="240" width="40" height="40" fill="#8A80FF"/>
<rect x="400" y="280" width="40" height="40" fill="#8A80FF"/>
<rect x="360" y="280" width="40" height="40" fill="#8A80FF"/>
<rect x="400" y="320" width="40" height="40" fill="#8A80FF"/>
<rect x="360" y="320" width="40" height="40" fill="#8A80FF"/>
<rect x="320" y="320" width="40" height="40" fill="#8A80FF"/>
<rect x="400" y="360" width="40" height="40" fill="#8A80FF"/>
<rect x="400" y="400" width="40" height="40" fill="#8A80FF"/>
<rect x="360" y="360" width="40" height="40" fill="#8A80FF"/>
<rect x="360" y="400" width="40" height="40" fill="#8A80FF"/>
<rect x="360" y="440" width="40" height="40" fill="#8A80FF"/>
<rect x="360" y="480" width="40" height="40" fill="#8A80FF"/>
<rect x="400" y="480" width="40" height="40" fill="#8A80FF"/>
<rect x="360" y="520" width="40" height="40" fill="#8A80FF"/>
<rect x="320" y="360" width="40" height="40" fill="#8A80FF"/>
<rect x="320" y="400" width="40" height="40" fill="#8A80FF"/>
<rect x="320" y="440" width="40" height="40" fill="#8A80FF"/>
<rect x="320" y="560" width="40" height="40" fill="#8A80FF"/>
<rect x="320" y="600" width="40" height="40" fill="#8A80FF"/>
<rect x="320" y="680" width="40" height="40" fill="#8A80FF"/>
<rect x="280" y="440" width="40" height="40" fill="#8A80FF"/>
<rect x="280" y="640" width="40" height="40" fill="#8A80FF"/>
<rect x="280" y="360" width="40" height="40" fill="#8A80FF"/>
<rect x="440" y="240" width="40" height="40" fill="#8A80FF"/>
<rect x="440" y="280" width="40" height="40" fill="#8A80FF"/>
<rect x="440" y="320" width="40" height="40" fill="#8A80FF"/>
<rect x="440" y="360" width="40" height="40" fill="#8A80FF"/>
<rect x="440" y="400" width="40" height="40" fill="#8A80FF"/>
<rect x="440" y="440" width="40" height="40" fill="#8A80FF"/>
<rect x="480" y="240" width="40" height="40" fill="#8A80FF"/>
<rect x="480" y="280" width="40" height="40" fill="#8A80FF"/>
<rect x="480" y="320" width="40" height="40" fill="#8A80FF"/>
<rect x="480" y="360" width="40" height="40" fill="#8A80FF"/>
<rect x="480" y="400" width="40" height="40" fill="#8A80FF"/>
<rect x="520" y="240" width="40" height="40" fill="#8A80FF"/>
<rect x="520" y="280" width="40" height="40" fill="#8A80FF"/>
<rect x="520" y="320" width="40" height="40" fill="#8A80FF"/>
<rect x="520" y="360" width="40" height="40" fill="#8A80FF"/>
<rect x="520" y="400" width="40" height="40" fill="#8A80FF"/>
<rect x="560" y="240" width="40" height="40" fill="#8A80FF"/>
<rect x="560" y="280" width="40" height="40" fill="#8A80FF"/>
<rect x="560" y="320" width="40" height="40" fill="#8A80FF"/>
<rect x="560" y="360" width="40" height="40" fill="#8A80FF"/>
<rect x="560" y="400" width="40" height="40" fill="#8A80FF"/>
<rect x="560" y="440" width="40" height="40" fill="#8A80FF"/>
<rect x="560" y="480" width="40" height="40" fill="#8A80FF"/>
<rect x="600" y="240" width="40" height="40" fill="#8A80FF"/>
<rect x="600" y="280" width="40" height="40" fill="#8A80FF"/>
<rect x="640" y="280" width="40" height="40" fill="#8A80FF"/>
<rect x="680" y="280" width="40" height="40" fill="#8A80FF"/>
<rect x="600" y="320" width="40" height="40" fill="#8A80FF"/>
<rect x="640" y="320" width="40" height="40" fill="#8A80FF"/>
<rect x="680" y="320" width="40" height="40" fill="#8A80FF"/>
<rect x="720" y="320" width="40" height="40" fill="#8A80FF"/>
<rect x="760" y="320" width="40" height="40" fill="#8A80FF"/>
<rect x="600" y="360" width="40" height="40" fill="#8A80FF"/>
<rect x="640" y="360" width="40" height="40" fill="#8A80FF"/>
<rect x="640" y="400" width="40" height="40" fill="#8A80FF"/>
<rect x="680" y="360" width="40" height="40" fill="#8A80FF"/>
<rect x="680" y="400" width="40" height="40" fill="#8A80FF"/>
<rect x="680" y="440" width="40" height="40" fill="#8A80FF"/>
<rect x="720" y="360" width="40" height="40" fill="#8A80FF"/>
<rect x="720" y="400" width="40" height="40" fill="#8A80FF"/>
<rect x="720" y="440" width="40" height="40" fill="#8A80FF"/>
<rect x="720" y="480" width="40" height="40" fill="#8A80FF"/>
<rect x="720" y="520" width="40" height="40" fill="#8A80FF"/>
<rect x="760" y="440" width="40" height="40" fill="#8A80FF"/>
<rect x="680" y="240" width="40" height="40" fill="#8A80FF"/>
<rect x="400" y="440" width="40" height="40" fill="#6B0505"/>
<rect x="480" y="440" width="40" height="40" fill="#6B0505"/>
<rect x="480" y="480" width="40" height="40" fill="#6B0505"/>
<rect x="440" y="480" width="40" height="40" fill="#6B0505"/>
<rect x="480" y="520" width="40" height="40" fill="#6B0505"/>
<rect x="640" y="520" width="40" height="40" fill="#6B0505"/>
<rect x="640" y="480" width="40" height="40" fill="#6B0505"/>
<rect x="440" y="520" width="40" height="40" fill="#6B0505"/>
<rect x="600" y="520" width="40" height="40" fill="#6B0505"/>
<rect x="600" y="560" width="40" height="40" fill="#6B0505"/>
<rect x="600" y="600" width="40" height="40" fill="#6B0505"/>
<rect x="600" y="640" width="40" height="40" fill="#6B0505"/>
<rect x="640" y="640" width="40" height="40" fill="#6B0505"/>
<rect x="680" y="640" width="40" height="40" fill="#6B0505"/>
<rect x="600" y="680" width="40" height="40" fill="#6B0505"/>
<rect x="640" y="680" width="40" height="40" fill="#6B0505"/>
<rect x="680" y="680" width="40" height="40" fill="#6B0505"/>
<rect x="600" y="720" width="40" height="40" fill="#6B0505"/>
<rect x="640" y="720" width="40" height="40" fill="#6B0505"/>
<rect x="680" y="720" width="40" height="40" fill="#6B0505"/>
<rect x="600" y="760" width="40" height="40" fill="#6B0505"/>
<rect x="640" y="760" width="40" height="40" fill="#6B0505"/>
<rect x="640" y="800" width="40" height="40" fill="#6B0505"/>
<rect x="640" y="840" width="40" height="40" fill="#6B0505"/>
<rect x="680" y="760" width="40" height="40" fill="#6B0505"/>
<rect x="680" y="800" width="40" height="40" fill="#6B0505"/>
<rect x="600" y="840" width="40" height="40" fill="#6B0505"/>
<rect x="600" y="880" width="40" height="40" fill="#6B0505"/>
<rect x="600" y="480" width="40" height="40" fill="#6B0505"/>
<rect x="400" y="520" width="40" height="40" fill="#6B0505"/>
<rect x="560" y="520" width="40" height="40" fill="#6B0505"/>
<rect x="560" y="560" width="40" height="40" fill="#6B0505"/>
<rect x="560" y="600" width="40" height="40" fill="#6B0505"/>
<rect x="560" y="640" width="40" height="40" fill="#6B0505"/>
<rect x="560" y="680" width="40" height="40" fill="#6B0505"/>
<rect x="560" y="760" width="40" height="40" fill="#6B0505"/>
<rect x="560" y="840" width="40" height="40" fill="#6B0505"/>
<rect x="560" y="880" width="40" height="40" fill="#6B0505"/>
<rect x="400" y="560" width="40" height="40" fill="#6B0505"/>
<rect x="360" y="560" width="40" height="40" fill="#6B0505"/>
<rect x="400" y="600" width="40" height="40" fill="#6B0505"/>
<rect x="360" y="600" width="40" height="40" fill="#6B0505"/>
<rect x="400" y="640" width="40" height="40" fill="#6B0505"/>
<rect x="320" y="640" width="40" height="40" fill="#6B0505"/>
<rect x="400" y="680" width="40" height="40" fill="#6B0505"/>
<rect x="400" y="720" width="40" height="40" fill="#6B0505"/>
<rect x="400" y="760" width="40" height="40" fill="#6B0505"/>
<rect x="400" y="800" width="40" height="40" fill="#6B0505"/>
<rect x="520" y="440" width="40" height="40" fill="#6B0505"/>
<rect x="520" y="480" width="40" height="40" fill="#6B0505"/>
<rect x="520" y="520" width="40" height="40" fill="#6B0505"/>
<rect x="520" y="560" width="40" height="40" fill="#6B0505"/>
<rect x="520" y="600" width="40" height="40" fill="#6B0505"/>
<rect x="520" y="640" width="40" height="40" fill="#6B0505"/>
<rect x="480" y="640" width="40" height="40" fill="#6B0505"/>
<rect x="440" y="640" width="40" height="40" fill="#6B0505"/>
<rect x="520" y="680" width="40" height="40" fill="#6B0505"/>
<rect x="480" y="680" width="40" height="40" fill="#6B0505"/>
<rect x="440" y="680" width="40" height="40" fill="#6B0505"/>
<rect x="520" y="720" width="40" height="40" fill="#6B0505"/>
<rect x="480" y="720" width="40" height="40" fill="#6B0505"/>
<rect x="440" y="720" width="40" height="40" fill="#6B0505"/>
<rect x="520" y="760" width="40" height="40" fill="#6B0505"/>
<rect x="480" y="760" width="40" height="40" fill="#6B0505"/>
<rect x="480" y="800" width="40" height="40" fill="#6B0505"/>
<rect x="480" y="840" width="40" height="40" fill="#6B0505"/>
<rect x="480" y="920" width="40" height="40" fill="#6B0505"/>
<rect x="480" y="960" width="40" height="40" fill="#6B0505"/>
<rect x="520" y="960" width="40" height="40" fill="#6B0505"/>
<rect x="480" y="1000" width="40" height="40" fill="#6B0505"/>
<rect x="520" y="1000" width="40" height="40" fill="#6B0505"/>
<rect x="480" y="1040" width="40" height="40" fill="#6B0505"/>
<rect x="520" y="1040" width="40" height="40" fill="#6B0505"/>
<rect x="440" y="760" width="40" height="40" fill="#6B0505"/>
<rect x="440" y="800" width="40" height="40" fill="#6B0505"/>
<rect x="440" y="840" width="40" height="40" fill="#6B0505"/>
<rect x="440" y="880" width="40" height="40" fill="#6B0505"/>
<rect x="440" y="920" width="40" height="40" fill="#6B0505"/>
<rect x="440" y="960" width="40" height="40" fill="#6B0505"/>
<rect x="440" y="1000" width="40" height="40" fill="#6B0505"/>
<rect x="440" y="1040" width="40" height="40" fill="#6B0505"/>
<rect x="520" y="840" width="40" height="40" fill="#6B0505"/>
<rect x="520" y="880" width="40" height="40" fill="#6B0505"/>
<rect x="680" y="520" width="40" height="40" fill="#6B0505"/>
<rect x="680" y="480" width="40" height="40" fill="#6B0505"/>
<rect x="600" y="440" width="40" height="40" fill="#6B0505"/>
<rect x="600" y="400" width="40" height="40" fill="#6B0505"/>
<rect x="640" y="440" width="40" height="40" fill="#6B0505"/>
<rect x="440" y="600" width="40" height="40" fill="#BD1700"/>
<rect x="640" y="600" width="40" height="40" fill="#BD1700"/>
<rect x="560" y="720" width="40" height="40" fill="#8195FF"/>
<rect x="520" y="800" width="40" height="40" fill="#A80000"/>
<rect x="560" y="800" width="40" height="40" fill="#A80000"/>
<rect x="600" y="800" width="40" height="40" fill="#A80000"/>
<rect x="440" y="560" width="40" height="40" fill="#8195FF"/>
<rect x="480" y="560" width="40" height="40" fill="#8195FF"/>
<rect x="640" y="560" width="40" height="40" fill="#8195FF"/>
<rect x="680" y="560" width="40" height="40" fill="#8195FF"/>
<rect x="480" y="600" width="40" height="40" fill="#6B0505"/>
<rect x="680" y="600" width="40" height="40" fill="#6B0505"/>
<rect x="720" y="560" width="40" height="40" fill="black"/>
<rect x="720" y="600" width="40" height="40" fill="black"/>
<rect x="720" y="640" width="40" height="40" fill="black"/>
<rect x="720" y="680" width="40" height="40" fill="black"/>
<rect x="720" y="720" width="40" height="40" fill="black"/>
<rect x="720" y="760" width="40" height="40" fill="black"/>
<rect x="720" y="800" width="40" height="40" fill="black"/>
<rect x="680" y="840" width="40" height="40" fill="black"/>
<rect x="640" y="880" width="40" height="40" fill="black"/>
<rect x="600" y="920" width="40" height="40" fill="black"/>
<rect x="560" y="920" width="40" height="40" fill="black"/>
<rect x="560" y="960" width="40" height="40" fill="black"/>
<rect x="560" y="1000" width="40" height="40" fill="black"/>
<rect x="560" y="1040" width="40" height="40" fill="black"/>
<rect x="400" y="1040" width="40" height="40" fill="black"/>
<rect x="400" y="1000" width="40" height="40" fill="black"/>
<rect x="400" y="960" width="40" height="40" fill="black"/>
<rect x="400" y="920" width="40" height="40" fill="black"/>
<rect x="400" y="880" width="40" height="40" fill="black"/>
<rect x="400" y="840" width="40" height="40" fill="black"/>
<rect x="360" y="800" width="40" height="40" fill="black"/>
<rect x="360" y="760" width="40" height="40" fill="black"/>
<rect x="360" y="720" width="40" height="40" fill="black"/>
<rect x="360" y="680" width="40" height="40" fill="black"/>
<rect x="360" y="640" width="40" height="40" fill="black"/>
<rect x="520" y="920" width="40" height="40" fill="black"/>
<rect x="480" y="880" width="40" height="40" fill="black"/>
</svg>
